# xmcd
#
# Track frame offsets:
#	150
#	31895
#	59231
#	94095
#	120433
#	160289
#	191550
#	220729
#	257756
#	294280
#	322416
#
# Disc length: 4534 seconds
#
# Revision: 0
# Processed by: cddbd v1.5.1PL0 Copyright (c) Steve Scherf et al.
# Submitted via: audiograbber 1.83.01
#
DISCID=a411b40b
DTITLE=Various Artist - New Motion Of D&B chapter 5
DYEAR=2005
DGENRE=Drum and Bass
TTITLE0=Nothing - no way back
TTITLE1=Salamandra - I Cant stop
TTITLE2=Protech - Rain Comes
TTITLE3=Jebar - Sunrise
TTITLE4=Paralyzah - Kamour
TTITLE5=Spherix - Clarity (v2.0)
TTITLE6=Oblique - oppression`s subliminal
TTITLE7=Solaris - Clean My Mind
TTITLE8=Aspekt - 04,12,23 atmos_3
TTITLE9=Dissident - Oneiroid Psychosis
TTITLE10=Изобретатели Неба - Телефон
EXTD=
EXTT0=
EXTT1=
EXTT2=
EXTT3=
EXTT4=
EXTT5=
EXTT6=
EXTT7=
EXTT8=
EXTT9=
EXTT10=
PLAYORDER=
